<svg xmlns="http://www.w3.org/2000/svg" fill="#ffffff" viewBox="0 0 22 22" width="18" height="18"><title>format-personality-quiz-md</title> <rect fill="none" width="18" height="18"></rect> <path d="M22,20.503H0.0001v-0.4971c0-3.2454,2.5254-6.1949,6.3713-7.5455c-1.1819-1.2003-1.8447-2.7986-1.8447-4.5026
	c0-3.5624,2.9157-6.4608,6.4999-6.4608c3.5843,0,6.5,2.8984,6.5,6.4608c0,1.7118-0.6679,3.3144-1.8583,4.5161
	C19.4902,13.831,22,16.7752,22,20.0059V20.503z M1.0235,19.509h19.9531c-0.2671-2.8175-2.7846-5.3291-6.4331-6.3483l-0.9595-0.2679
	l0.7898-0.6043c1.3682-1.0468,2.1529-2.6257,2.1529-4.3307c0-3.0144-2.4673-5.4669-5.5001-5.4669
	c-3.0326,0-5.4999,2.4525-5.4999,5.4669c0,1.6992,0.78,3.2741,2.1398,4.3206l0.7881,0.6067l-0.9604,0.2654
	C3.8236,14.1634,1.291,16.6795,1.0235,19.509z M11.5,15.0361H10.5v-2.0259c0-1.4055,0.8611-2.1058,1.6208-2.7241
	c0.7007-0.5703,1.2541-1.0212,1.2541-1.9555c0-1.3017-1.0654-2.3608-2.3749-2.3608c-1.3096,0-2.375,1.0591-2.375,2.3608h-1
	c0-1.8497,1.5139-3.3547,3.375-3.3547s3.375,1.505,3.375,3.3547c0,1.4056-0.8611,2.106-1.6209,2.7242
	C12.0534,11.625,11.5,12.076,11.5,13.0102V15.0361z M11.5001,17.024c0,0.2745-0.2239,0.4971-0.5001,0.4971
	c-0.2761,0-0.5-0.2226-0.5-0.4971c0-0.2744,0.2239-0.4969,0.5-0.4969C11.2762,16.5271,11.5001,16.7496,11.5001,17.024z"></path> </svg>